<svg xmlns="http://www.w3.org/2000/svg" viewBox="0 0 32 40" x="0px" y="0px"><path d="M24.26,14.445c-.246,0-.49,.015-.73,.045,.034-.292,.051-.587,.051-.885,0-4.202-3.418-7.62-7.62-7.62-3.902,0-7.128,2.948-7.569,6.733-3.566,.116-6.431,3.053-6.431,6.647,0,3.667,2.983,6.65,6.65,6.65h15.65c3.187,0,5.78-2.593,5.78-5.78s-2.593-5.79-5.78-5.79Zm0,9.57H8.61c-2.564,0-4.65-2.086-4.65-4.65s2.086-4.65,4.65-4.65c.208,0,.416,.017,.615,.042,.317,.04,.644-.056,.863-.292s.316-.544,.251-.86c0-3.099,2.521-5.62,5.62-5.62s5.62,2.521,5.62,5.62c0,.688-.122,1.35-.362,1.967-.15,.387-.046,.826,.261,1.104,.308,.279,.756,.338,1.124,.15,.492-.25,1.065-.382,1.657-.382,2.084,0,3.78,1.7,3.78,3.79s-1.696,3.78-3.78,3.78Z"/><path d="M16.503,13.479c-.353-.253-.83-.25-1.18,.009l-2.3,1.709c-.443,.33-.535,.956-.206,1.399,.329,.442,.955,.535,1.399,.206l.703-.523v3.73c0,.552,.448,1,1,1s1-.448,1-1v-3.77l.796,.572c.177,.127,.381,.188,.583,.188,.311,0,.618-.145,.813-.417,.322-.449,.22-1.074-.229-1.396l-2.38-1.709Z"/><text x="0" y="47" fill="#000000" font-size="5px" font-weight="bold" font-family="'Helvetica Neue', Helvetica, Arial-Unicode, Arial, Sans-serif">Created by Kiki Rizky</text><text x="0" y="52" fill="#000000" font-size="5px" font-weight="bold" font-family="'Helvetica Neue', Helvetica, Arial-Unicode, Arial, Sans-serif">from the Noun Project</text></svg>